<?xml version="1.0" encoding="utf-8"?>
<!-- Generator: Adobe Illustrator 27.3.1, SVG Export Plug-In . SVG Version: 6.00 Build 0)  -->
<svg version="1.1" id="Layer_1" xmlns="http://www.w3.org/2000/svg" xmlns:xlink="http://www.w3.org/1999/xlink" x="0px" y="0px"
	 viewBox="0 0 560 560" style="enable-background:new 0 0 560 560;" xml:space="preserve">
<path d="M216.1,39.8c-31.1,0-56.7,25.6-56.7,56.7s25.6,56.6,56.7,56.6c31.1,0,56.6-25.5,56.6-56.6S247.2,39.8,216.1,39.8z
	 M216.1,72.1c13.7,0,24.3,10.8,24.3,24.4s-10.7,24.3-24.3,24.3c-13.7,0-24.4-10.7-24.4-24.3S202.4,72.1,216.1,72.1z M341.2,115.9
	c-0.5,0-1.1,0-1.6,0.1c-4.8,0.5-9.2,3.2-11.8,7.3l-95.4,146.5l-47.2-71.9c-3-4.6-8.1-7.3-13.6-7.3c-5.4,0-10.4,2.8-13.4,7.3
	L8.4,426.2c-3.3,5-3.6,11.3-0.7,16.6c2.8,5.2,8.3,8.5,14.2,8.5h516.6c6,0,11.5-3.2,14.3-8.4c2.8-5.2,2.6-11.6-0.7-16.6L354.8,123.3
	C351.8,118.6,346.7,115.9,341.2,115.9L341.2,115.9z M341.2,161.6l63.7,97.8l-12.2,11.9l-40.1-39.3c-3.1-3-7.3-4.6-11.7-4.5
	c-4.1,0.1-8,1.7-10.9,4.5l-40.2,39.3l-12.1-11.9L341.2,161.6z M171.7,236.1l41.4,63.2l-77.9,119.6H51.9L171.7,236.1z M341.2,266
	l40.3,39.3c6.3,6.1,16.3,6.1,22.5,0l18.8-18.4l85.9,132h-335l85.9-131.9l18.8,18.4c6.3,6.2,16.4,6.2,22.6,0L341.2,266z"/>
</svg>
