<?xml version="1.0" encoding="utf-8"?>
<!-- Generator: Adobe Illustrator 27.3.1, SVG Export Plug-In . SVG Version: 6.00 Build 0)  -->
<svg version="1.1" id="Layer_1" xmlns="http://www.w3.org/2000/svg" xmlns:xlink="http://www.w3.org/1999/xlink" x="0px" y="0px"
	 viewBox="0 0 500 500" style="enable-background:new 0 0 500 500;" xml:space="preserve">
<g>
	<path d="M139.5,230.8h32.7v32.7h-32.7V230.8z"/>
	<path d="M270.1,100.2h32.7v32.7h-32.7V100.2z"/>
	<path d="M139.5,296.1h32.7v32.7h-32.7V296.1z"/>
	<path d="M204.8,230.8h32.7v32.7h-32.7V230.8z"/>
	<path d="M335.4,100.2H368v32.7h-32.7V100.2z"/>
	<path d="M204.8,296.1h32.7v32.7h-32.7V296.1z"/>
	<path d="M270.1,230.8h32.7v32.7h-32.7V230.8z"/>
	<path d="M270.1,296.1h32.7v32.7h-32.7V296.1z"/>
	<path d="M449.7,426.7h-16.3V51.2c0-4.3-1.7-8.5-4.8-11.5c-3.1-3.1-7.2-4.8-11.5-4.8H221.1c-4.3,0-8.5,1.7-11.5,4.8
		c-3.1,3.1-4.8,7.2-4.8,11.5v65.3c0,5.8,3.1,11.2,8.2,14.1c5.1,2.9,11.3,2.9,16.3,0s8.2-8.3,8.2-14.1v-49h163.3v359.2H270.1v-49
		c0-4.3-1.7-8.5-4.8-11.5s-7.2-4.8-11.5-4.8h-65.3c-4.3,0-8.5,1.7-11.5,4.8c-3.1,3.1-4.8,7.2-4.8,11.5v49h-65.3V198.2h228.6v179.6
		c0,5.8,3.1,11.2,8.2,14.1c5.1,2.9,11.3,2.9,16.3,0c5.1-2.9,8.2-8.3,8.2-14.1V181.8c0-4.3-1.7-8.5-4.8-11.5
		c-3.1-3.1-7.2-4.8-11.5-4.8H90.5c-4.3,0-8.5,1.7-11.5,4.8c-3.1,3.1-4.8,7.2-4.8,11.5v244.9H57.8c-5.8,0-11.2,3.1-14.1,8.2
		s-2.9,11.3,0,16.3s8.3,8.2,14.1,8.2h391.8c5.8,0,11.2-3.1,14.1-8.2s2.9-11.3,0-16.3S455.5,426.7,449.7,426.7z M204.8,394.1h32.7
		v32.7h-32.7V394.1z"/>
</g>
</svg>
