<?xml version="1.0" encoding="utf-8"?>
<!-- Generator: Adobe Illustrator 27.3.1, SVG Export Plug-In . SVG Version: 6.00 Build 0)  -->
<svg version="1.1" id="Layer_1" xmlns="http://www.w3.org/2000/svg" xmlns:xlink="http://www.w3.org/1999/xlink" x="0px" y="0px"
	 viewBox="0 0 500 500" style="enable-background:new 0 0 500 500;" xml:space="preserve">
<g>
	<path d="M358.5,245.4v31.3c33.6,0,60.9,27.3,60.9,60.9s-27.3,60.9-60.9,60.9h-30.3L315.3,75.1c-0.3-7-5.2-13-12-14.6
		c-6.8-1.6-13.9,1.5-17.3,7.6l-31.2,56.3l-18.6-53.8c-2.1-6.2-7.9-10.4-14.4-10.5c-6.6-0.1-12.5,3.7-14.9,9.8l-30.8,76.2L59.6,195.8
		c-15.1,6.4-10.7,19.7-5.6,24.7l57.8,65.7c3,3.4,7.3,5.3,11.8,5.3h0l33.8-0.1l-7,120.2c-0.2,4.3-0.7,16.6,15.5,16.6l192.6,1.6
		c50.9,0,92.2-41.4,92.2-92.2C450.8,286.8,409.4,245.4,358.5,245.4L358.5,245.4z M174,260.2L174,260.2l-43.3,0.1l-38.8-44.2
		l102.5-43.7c3.8-1.6,6.8-4.7,8.4-8.5l17.6-43.5l16.4,47.5c2,5.8,7.3,9.9,13.4,10.5c6.2,0.5,12.1-2.6,15-8l21.1-38.1l10.6,266.2
		l-114.2-1.2l7-120.4C189.8,272.4,189.8,260.2,174,260.2L174,260.2z M193.4,202.2c0-8.5,6.9-15.4,15.4-15.4
		c8.5,0,15.4,6.9,15.4,15.4c0,8.5-6.9,15.4-15.4,15.4C200.3,217.6,193.4,210.7,193.4,202.2z"/>
</g>
</svg>
