<?xml version="1.0" encoding="utf-8"?>
<!-- Generator: Adobe Illustrator 27.3.1, SVG Export Plug-In . SVG Version: 6.00 Build 0)  -->
<svg version="1.1" id="Layer_1" xmlns="http://www.w3.org/2000/svg" xmlns:xlink="http://www.w3.org/1999/xlink" x="0px" y="0px"
	 viewBox="0 0 560 560" style="enable-background:new 0 0 560 560;" xml:space="preserve">
<style type="text/css">
	.st0{fill-rule:evenodd;clip-rule:evenodd;}
</style>
<g>
	<path class="st0" d="M201.9,108c0-45,36.5-81.5,81.5-81.5S364.8,63,364.8,108s-36.5,81.5-81.5,81.5S201.9,153,201.9,108z
		 M283.3,67.3c-22.5,0-40.7,18.2-40.7,40.7s18.2,40.7,40.7,40.7s40.7-18.2,40.7-40.7S305.8,67.3,283.3,67.3z"/>
	<path d="M140.8,271c0-33.7,27.4-61.1,61.1-61.1h162.9c33.8,0,61.1,27.4,61.1,61.1v122.2c0,11.2-9.1,20.4-20.4,20.4
		s-20.4-9.1-20.4-20.4V271c0-11.2-9.1-20.4-20.4-20.4H201.9c-11.2,0-20.4,9.1-20.4,20.4v122.2c0,11.2-9.1,20.4-20.4,20.4
		s-20.4-9.1-20.4-20.4L140.8,271z"/>
	<path d="M344.4,515.4c11.2,0,20.4-9.1,20.4-20.4V372.8c0-11.2-9.1-20.4-20.4-20.4s-20.4,9.1-20.4,20.4v101.8h-81.5V372.8
		c0-11.2-9.1-20.4-20.4-20.4s-20.4,9.1-20.4,20.4V495c0,11.2,9.1,20.4,20.4,20.4H344.4z"/>
</g>
</svg>
