<?xml version="1.0" encoding="utf-8"?>
<!-- Generator: Adobe Illustrator 27.3.1, SVG Export Plug-In . SVG Version: 6.00 Build 0)  -->
<svg version="1.1" id="Layer_1" xmlns="http://www.w3.org/2000/svg" xmlns:xlink="http://www.w3.org/1999/xlink" x="0px" y="0px"
	 viewBox="0 0 336 380" style="enable-background:new 0 0 336 380;" xml:space="preserve">
<g>
	<path d="M274.8,58.2L274.8,58.2C246.2,29.7,208.2,14,168,14c-40.3,0-78.3,15.7-106.8,44.2C32.7,86.7,17,124.7,17,165
		c0,78,122.9,185.6,137.4,198.1l0.2,0.2c3.8,3.2,8.5,4.9,13.3,4.9c4.8,0,9.6-1.7,13.3-4.9l0.2-0.2C196.1,350.6,319,242.9,319,165
		C319,124.7,303.3,86.7,274.8,58.2z M113,69.8c16.6-9.6,35.6-14.6,55-14.6s38.4,5.1,55,14.6c33.9,19.6,54.9,56,54.9,95.2
		c0,43.5-68,117-109.9,155.2C126.1,282.1,58.1,208.7,58.1,165C58.1,125.9,79.2,89.4,113,69.8z"/>
	<path d="M168,224.7c19.4,0,37.7-7.6,51.5-21.3c13.8-13.8,21.3-32,21.3-51.5c0-19.4-7.6-37.7-21.3-51.5
		c-13.8-13.8-32-21.3-51.5-21.3c-19.4,0-37.7,7.6-51.5,21.3c-13.8,13.8-21.3,32-21.3,51.5c0,19.4,7.6,37.7,21.3,51.5
		C130.3,217.1,148.6,224.7,168,224.7z M145.7,129.7c6-6,13.9-9.3,22.3-9.3c8.4,0,16.3,3.3,22.3,9.3c6,6,9.3,13.9,9.3,22.3
		c0,8.4-3.3,16.3-9.3,22.3v0c-6,6-13.9,9.3-22.3,9.3s-16.3-3.3-22.3-9.3c-6-5.9-9.3-13.8-9.3-22.3
		C136.4,143.6,139.7,135.7,145.7,129.7z"/>
</g>
</svg>
