<?xml version="1.0" encoding="utf-8"?>
<!-- Generator: Adobe Illustrator 27.3.1, SVG Export Plug-In . SVG Version: 6.00 Build 0)  -->
<svg version="1.1" id="Layer_1" xmlns="http://www.w3.org/2000/svg" xmlns:xlink="http://www.w3.org/1999/xlink" x="0px" y="0px"
	 viewBox="0 0 586 586" style="enable-background:new 0 0 586 586;" xml:space="preserve">
<style type="text/css">
	.st0{fill:#616161;}
</style>
<path class="st0" d="M486.8,100.5c-36.4-36.6-85.9-57.3-137.5-57.5C297.6,42.7,248,63,211.3,99.4c-36.7,36.3-57.5,85.8-57.8,137.4
	l0,0c-0.1,38.6,11.3,75.9,32.1,107.7L43.5,486L98,540.7l141.8-141.2c31.9,21.5,69.7,33.3,108.7,33.5c51.7,0,101.2-20.5,137.7-57
	c36.6-36.5,57.1-86,57.2-137.6C543.6,186.7,523.2,137.1,486.8,100.5z M432.4,318.6c-22,22.2-51.8,34.7-83,35
	c-31.2,0.2-61.2-12-83.5-33.9c-22.2-21.9-34.9-51.7-35.2-82.9h-0.2c-0.1-31.4,12.2-61.6,34.4-83.9c22.1-22.3,52.2-34.9,83.6-35.1
	c31.2,0,61.2,12.3,83.3,34.3c22.1,22,34.6,51.9,34.7,83.1C466.6,266.5,454.3,296.5,432.4,318.6z"/>
</svg>
