<?xml version="1.0" encoding="utf-8"?>
<!-- Generator: Adobe Illustrator 27.3.1, SVG Export Plug-In . SVG Version: 6.00 Build 0)  -->
<svg version="1.1" id="Layer_1" xmlns="http://www.w3.org/2000/svg" xmlns:xlink="http://www.w3.org/1999/xlink" x="0px" y="0px"
	 viewBox="0 0 79.7 93.2" style="enable-background:new 0 0 79.7 93.2;" xml:space="preserve">
<style type="text/css">
	.st0{fill:#FFFFFF;}
</style>
<g>
	<path class="st0" d="M40.2,88.8c-0.7,0-1.5-0.3-1.9-0.9c-0.1-0.1-7.2-8.9-14.9-14.8c-0.8-0.6-1.7-1.3-2.5-1.9
		c-7.5-5.5-16-11.8-16-22.1c0-10.4,6.5-16.9,17-16.9c9.5,0,15.4,6.6,18.3,11.2c3-4.6,8.9-11.3,18.3-11.3c10.5,0,17,6.5,17,16.9
		c0,10.3-8.5,16.5-16,22.1c-0.8,0.6-1.7,1.3-2.5,1.9C49.6,78.7,42.8,87,42.2,87.8c-0.3,0.5-0.8,0.8-1.4,0.9
		C40.6,88.8,40.4,88.8,40.2,88.8z M21.8,37.3c-7.8,0-12,4.2-12,11.9c0,7.8,6.8,12.8,13.9,18.1c0.9,0.6,1.7,1.3,2.6,1.9
		c5.8,4.4,11.1,10.1,13.8,13.3c2.7-3.2,8.1-8.9,13.9-13.3c0.8-0.6,1.7-1.3,2.6-1.9c7.2-5.3,13.9-10.3,13.9-18.1
		c0-7.7-4.3-11.9-12-11.9c-10.7,0-15.8,11.9-16,12.5c-0.3,0.9-1.2,1.5-2.1,1.6c-1.1,0.1-2.1-0.5-2.5-1.5
		C37.8,49.6,32.7,37.3,21.8,37.3z"/>
</g>
<g>
	<path class="st0" d="M7.1,31.3c-0.1,0-0.2,0-0.3,0c-1.4-0.1-2.4-1.4-2.2-2.8c0-0.3,0.9-7.9,4.6-12.6c3.6-4.5,8.1-7,8.2-7.1
		c0.8-0.4,1.7-0.4,2.5,0c0.8,0.4,1.2,1.3,1.2,2.2c0,2.4,0.7,6.8,2.4,8.4c0.5,0.4,1,0.6,1.7,0.6c1.9-0.1,2.5-1.1,3.8-4.9
		c0.6-1.7,1.2-3.6,2.3-5.3C34.8,3.7,41.7,2,42,1.9c0.7-0.2,1.4,0,1.9,0.3s1,1,1.1,1.6c1,5.2,3.9,14.3,7.2,16.4
		c0.7,0.4,1.1,0.4,1.5,0.3c5.5-1.4,5.2-8.7,5.2-9c0-0.9,0.4-1.7,1-2.2c0.7-0.5,1.6-0.6,2.4-0.3c0.3,0.1,7,2.9,10,9.3
		c1.9,4.1,2.9,8.8,2.9,9c0.3,1.4-0.6,2.7-2,2.9c-1.4,0.3-2.7-0.6-2.9-2c0,0-0.9-4.4-2.6-7.9c-1-2.2-2.8-3.9-4.3-5
		c-0.8,3.9-3.2,8.4-8.6,9.9c-1.8,0.5-3.7,0.2-5.4-0.9c-4.8-3-7.6-12-8.8-16.8c-1.7,0.8-3.9,2.3-5.3,4.5c-0.8,1.3-1.3,2.8-1.8,4.3
		c-1.2,3.5-2.7,7.9-8.2,8.3c-2,0.1-3.9-0.5-5.4-1.9c-2.1-1.9-3-5-3.5-7.5c-1.1,0.9-2.4,2.1-3.5,3.5C10.3,22.5,9.5,29,9.5,29
		C9.4,30.3,8.3,31.3,7.1,31.3z"/>
</g>
</svg>
